<?xml version="1.0" encoding="utf-8" ?><svg xmlns="http://www.w3.org/2000/svg" xmlns:xlink="http://www.w3.org/1999/xlink" width="3069" height="502" viewBox="0 0 3069 502"><path fill="white" d="M1593.83 8.96653L1668.67 8.9354C1738.07 8.88666 1802.31 12.6144 1857.16 61.7193C1905.31 104.824 1924.88 167.405 1928.29 230.262C1932.11 300.807 1920.45 380.604 1871.85 434.774C1870.84 435.879 1869.8 436.96 1868.74 438.016C1815.52 491.202 1750 494.021 1679.57 494.04L1593.83 494L1593.83 8.96653ZM1725 377.206C1743.77 375.474 1757.76 369.915 1770.01 355.078C1770.81 354.111 1771.56 353.105 1772.27 352.065C1798.73 311.237 1799.63 244.166 1789.6 197.392C1784.9 175.47 1775.8 151.381 1756.11 138.68C1747.08 132.858 1735.77 129.688 1725 129.909L1725 377.206Z"/><path fill="white" d="M0.832461 8.96653L88.0959 8.93146C138.403 8.93423 190.586 6.99773 238.241 25.9621C270.451 38.7805 295.524 61.3111 309.295 93.3881C326.274 132.935 328.783 187.354 312.661 227.544C300.294 258.374 278.011 279.082 247.801 292.014L345.42 494L217.5 494L203.247 494C179.203 425.674 155.754 356.797 129.999 289.111C130.11 310.538 131.629 331.991 131.915 353.428C132.539 400.257 132.019 447.164 132 494L0.832461 494L0.832461 8.96653ZM132 232.85C147.044 233.74 160.605 232.266 172.432 221.762C174.208 220.185 175.972 218.547 177.608 216.827C190.282 199.903 195.339 180.446 192.347 159.407C190.367 145.49 184.403 132.283 172.911 123.654C160.698 114.482 146.767 112.875 132 113.09L132 232.85Z"/><path fill="white" d="M1068.83 9L1347.17 9L1347.17 127.229L1272 127.229L1272 418.5L1272 494L1140.83 494L1140.83 127.229L1068.83 127.229L1068.83 9Z"/><path fill="white" d="M2789.83 9L3068.17 9L3068.17 127.229L2993 127.229L2993 418.5L2993 494L2861.83 494L2861.83 127.229L2789.83 127.229L2789.83 9Z"/><path fill="white" d="M2604.83 9L2736 9L2736 494L2604.83 494L2604.83 9Z"/><path fill="white" d="M2149.26 502C2098.3 494.95 2062.41 479.021 2030.59 437.049C1981.21 371.926 1969.76 276.351 1980.72 197.154C1989.17 136.059 2013.12 70.8887 2063.74 32.5187C2098.92 5.85082 2144.02 -3.34508 2187.38 2.64584C2230.78 8.64397 2267.39 31.5147 2293.67 66.3277C2343 131.659 2354.34 227.467 2343.16 306.738C2334.5 368.194 2310.3 432.899 2259.19 471.288C2240.44 485.37 2219.06 494.357 2196.06 498.735C2189.07 500.064 2181.59 500.399 2174.74 502L2149.26 502ZM2165.12 379.784C2176.87 377.708 2184.77 372.376 2191.64 362.555C2218.03 324.878 2216.41 232.268 2208.42 187.322C2204.87 167.397 2198.19 141.392 2180.57 129.067C2174.22 124.605 2166.5 122.538 2158.77 123.233C2147.07 125.301 2139.19 130.677 2132.36 140.446C2105.97 178.178 2107.58 270.873 2115.62 315.86C2119.17 335.731 2125.87 361.637 2143.43 373.924C2149.75 378.356 2157.43 380.43 2165.12 379.784Z"/><path fill="white" d="M385 9L516.168 9L516.122 232.783L516.133 298.879C516.139 314.156 515.499 329.724 517.419 344.906C518.652 354.658 520.686 364.143 527.902 371.391C533.784 377.299 541.798 379.953 550.036 379.896C558.324 379.84 566.674 377.537 572.609 371.488C579.676 364.285 581.634 353.883 582.779 344.239C584.568 329.165 583.945 313.67 583.917 298.51L583.809 232.315L583.832 9L715 9L714.969 231.647C714.99 276.862 718.685 340.511 709.504 383.57C703.411 412.147 691.327 439.387 670.49 460.272C649.424 481.386 621.732 493.439 592.57 498.375C583.803 499.859 574.191 499.973 565.68 502L534.32 502C487.079 495.535 448.819 487.571 418.279 447.397C402.204 426.25 393.181 400.5 388.773 374.507C381.8 333.389 384.966 278.126 384.992 235.653L385 9Z"/><path fill="white" d="M776.164 330.098C792.873 354.13 817.219 377.721 847.142 383.068C860.029 385.37 874.309 383.984 885.239 376.262C891.764 371.651 895.968 365.125 897.307 357.231C899.094 346.697 896.331 337.483 890.117 328.908C879.87 314.767 863.303 304.973 849.852 294.157C796.601 251.335 764.987 206.859 776.047 135.46C782.515 93.7099 803.226 52.0529 837.862 26.7693C869.783 3.46683 910.182 -2.8521 948.675 3.18237C972.147 6.86184 994.045 14.6489 1015.17 25.3983L1015.17 172.445C999.159 149.48 975.894 126.447 947.154 121.397C936.635 119.548 925.069 121.179 916.249 127.497C910.123 131.885 905.666 138.404 904.478 145.906C903.184 154.082 905.698 162.727 910.563 169.331C922.598 185.666 941.285 196.928 957.26 209.022C1013.22 251.386 1037.67 296.314 1026.94 367.74C1020.75 408.943 999.841 447.925 965.991 472.877C941.265 491.103 916.252 497.027 886.63 502L860.364 502C831.067 497.976 803.72 493.575 776.164 482.104L776.164 330.098Z"/></svg>